<?xml version="1.0" standalone="no"?>
<!DOCTYPE svg PUBLIC "-//W3C//DTD SVG 20010904//EN"
 "http://www.w3.org/TR/2001/REC-SVG-20010904/DTD/svg10.dtd">
<svg version="1.0" xmlns="http://www.w3.org/2000/svg"
 width="80.000000pt" height="80.000000pt" viewBox="0 0 80.000000 80.000000"
 preserveAspectRatio="xMidYMid meet">
<metadata>
Created by potrace 1.14, written by Peter Selinger 2001-2017
</metadata>
<g transform="translate(0.000000,80.000000) scale(0.100000,-0.100000)"
fill="#000000" stroke="none">
<path d="M110 648 c0 -5 -6 -8 -14 -8 -17 0 -52 -49 -50 -70 3 -38 18 -81 30
-91 8 -6 14 -17 14 -23 1 -17 37 -56 52 -56 10 0 9 3 -2 10 -8 5 -10 10 -5 10
7 0 7 3 0 8 -13 9 -34 42 -41 65 -4 9 -9 17 -13 17 -4 0 -8 17 -9 37 -2 21 -5
39 -7 42 -6 6 35 35 55 38 8 2 41 4 73 5 86 2 74 24 -13 23 -38 0 -70 -3 -70
-7z"/>
<path d="M350 643 c0 -10 39 -12 160 -11 146 1 163 0 187 -18 25 -19 50 -74
34 -74 -4 0 -8 -12 -9 -27 -2 -26 -1 -26 12 -8 8 11 12 23 10 27 -2 4 0 9 5
13 10 6 7 23 -11 61 -17 36 -71 47 -235 48 -115 1 -153 -2 -153 -11z"/>
<path d="M141 558 c-14 -22 2 -51 39 -70 28 -15 59 -48 60 -64 0 -6 -11 -20
-25 -32 -14 -12 -25 -19 -25 -17 0 3 -6 1 -12 -4 -7 -6 -26 -21 -42 -34 -20
-16 -27 -29 -23 -40 9 -24 32 -21 75 8 45 30 63 31 80 4 12 -18 10 -23 -12
-44 -14 -13 -26 -29 -26 -35 0 -20 33 -24 62 -7 65 37 92 10 97 -101 1 -22 42
-31 61 -13 9 9 15 18 14 19 -1 2 17 43 42 91 24 48 44 94 44 102 0 10 -13 14
-43 15 -84 3 -148 14 -162 27 -8 8 -12 17 -9 20 3 3 7 11 8 19 2 7 8 27 15 43
20 48 41 109 41 120 0 6 -48 10 -124 10 -108 0 -125 -2 -135 -17z"/>
<path d="M479 572 c-14 -2 -47 -67 -52 -99 0 -5 -7 -19 -14 -33 -14 -27 -6
-42 24 -47 56 -8 139 -12 148 -5 14 10 69 123 71 144 1 10 -5 23 -13 30 -13
11 -128 18 -164 10z"/>
<path d="M657 436 c-8 -20 16 -39 30 -25 14 14 6 39 -12 39 -7 0 -15 -6 -18
-14z"/>
<path d="M624 335 c-3 -14 -10 -25 -15 -25 -5 0 -9 -9 -9 -19 0 -11 -4 -21 -8
-23 -10 -4 -72 -129 -72 -146 0 -6 -4 -12 -10 -12 -5 0 -12 -11 -16 -24 -14
-57 -82 -78 -122 -38 -12 12 -22 27 -22 32 0 6 -4 10 -10 10 -5 0 -10 6 -10
13 0 15 -40 61 -47 54 -2 -3 7 -23 21 -46 14 -22 26 -43 26 -45 0 -3 12 -17
26 -31 26 -26 94 -44 94 -25 0 6 3 9 8 9 19 -3 33 2 28 10 -4 5 -2 11 4 13 10
3 160 293 160 309 0 20 -20 8 -26 -16z"/>
<path d="M145 196 c-16 -12 -18 -18 -9 -33 20 -32 69 -13 62 24 -4 23 -29 27
-53 9z"/>
</g>
</svg>
